<svg xmlns="http://www.w3.org/2000/svg" viewBox="0 0 91.92 89.71"><defs><style>.cls-1{fill:#fff;}</style></defs><title>자산 1</title><g id="레이어_2" data-name="레이어 2"><g id="레이어_1-2" data-name="레이어 1"><path class="cls-1" d="M89.83,61.1l2.09-9.16L62.36,46.66l-10-1.81,7.17-5.18,25.6-18.49-5.86-7.35L56.66,33.65,49,40.38l.42-8.83L50.91,0h-9.4l1.43,30,.48,10.19-6.65-5.84L13.05,13.51,7.19,20.86,31.53,38.45l8.27,6L31.09,46,0,51.54,2.09,60.7,31,52.63l9.83-2.73-4.21,7.78-15,27.77,8.47,4.08L41.8,61.88l4-9.39,3.45,8.14L61.58,89.71l8.47-4.08L55.74,59.22l-4.85-9,8.52,2.38Z"/></g></g></svg>