<svg width="455" height="420" viewBox="0 0 455 420" fill="none" xmlns="http://www.w3.org/2000/svg">
<path fill-rule="evenodd" clip-rule="evenodd" d="M444.466 51.1149H359.754L155.123 -40.1987L50.6075 -49L54.2607 -21.2965L145.222 -13.7946L56.8125 -1.94593L59.138 15.6894L171.626 34.6126L62.0385 37.6851L63.8095 51.1149L165.025 73.1182L0 51.1149L26.6177 97.1841L110.016 99.5223L35.237 112.102L57.2085 150.13L143.021 136.928L57.2085 175.433L63.0592 202.686L161.374 169.731L67.3681 222.756L74.2604 254.859L193.686 204.855L78.311 273.727L85.9386 309.255L206.969 242.096L90.4648 330.338L99.0147 370.162L191.428 293.151L148.522 358.061L157.792 367.855L221.997 291.912L171.321 382.15L181.623 393.035L238.707 324.202L189.51 401.369L195.051 407.223L255.163 355.267L201.87 414.429L206.831 419.67L342.151 318.455L393.859 136.928L454.368 102.823L444.466 51.1149Z" fill="#D0DCFF"/>
</svg>
