<svg width="465" height="506" viewBox="0 0 465 506" fill="none" xmlns="http://www.w3.org/2000/svg">
<path fill-rule="evenodd" clip-rule="evenodd" d="M280.232 106.055V62.3853L162.947 0L89.3328 87.3394L115.535 127.266L70.6172 106.055L0.745605 193.395L20.7089 305.688L89.3328 311.927L33.186 346.862L48.1584 444.183L115.535 494.092L162.947 465.395L147.975 516.55L190.397 544L286.47 516.55V479.119L305.186 505.321L407.498 479.119L429.957 430.459L395.021 381.798L438.691 403.009L464.892 359.339L444.929 234.569H395.021L438.691 213.358L416.232 118.532L305.186 68.6239L280.232 106.055ZM237.81 224.587L209.113 239.56L171.681 285.725L182.911 345.615L249.039 375.56L282.727 359.339C292.293 344.367 311.425 313.673 311.425 310.679C311.425 307.684 296.452 267.841 288.966 248.294L237.81 224.587Z" fill="#E0F3CD"/>
</svg>
