<svg width="64" height="64" viewBox="0 0 64 64" fill="none" xmlns="http://www.w3.org/2000/svg">
<path d="M31.6 1C14.2625 1 1 14.1625 1 31.5C1 45.3625 9.725 57.225 22.1875 61.4C23.7875 61.6875 24.35 60.7 24.35 59.8875C24.35 59.1125 24.3125 54.8375 24.3125 52.2125C24.3125 52.2125 15.5625 54.0875 13.725 48.4875C13.725 48.4875 12.3 44.85 10.25 43.9125C10.25 43.9125 7.3875 41.95 10.45 41.9875C10.45 41.9875 13.5625 42.2375 15.275 45.2125C18.0125 50.0375 22.6 48.65 24.3875 47.825C24.675 45.825 25.4875 44.4375 26.3875 43.6125C19.4 42.8375 12.35 41.825 12.35 29.8C12.35 26.3625 13.3 24.6375 15.3 22.4375C14.975 21.625 13.9125 18.275 15.625 13.95C18.2375 13.1375 24.25 17.325 24.25 17.325C26.75 16.625 29.4375 16.2625 32.1 16.2625C34.7625 16.2625 37.45 16.625 39.95 17.325C39.95 17.325 45.9625 13.125 48.575 13.95C50.2875 18.2875 49.225 21.625 48.9 22.4375C50.9 24.65 52.125 26.375 52.125 29.8C52.125 41.8625 44.7625 42.825 37.775 43.6125C38.925 44.6 39.9 46.475 39.9 49.4125C39.9 53.625 39.8625 58.8375 39.8625 59.8625C39.8625 60.675 40.4375 61.6625 42.025 61.375C54.525 57.225 63 45.3625 63 31.5C63 14.1625 48.9375 1 31.6 1Z" fill="#5186EE"/>
</svg>
