<svg width="64" height="64" viewBox="0 0 64 64" fill="none" xmlns="http://www.w3.org/2000/svg">
<path fill-rule="evenodd" clip-rule="evenodd" d="M32 63C49.1208 63 63 49.1208 63 32C63 14.8792 49.1208 1 32 1C14.8792 1 1 14.8792 1 32C1 49.1208 14.8792 63 32 63ZM19.2796 25.5716C21.6137 25.5716 23.5058 23.6794 23.5058 21.3454C23.5058 19.0113 21.6137 17.1192 19.2796 17.1192C16.9455 17.1192 15.0534 19.0113 15.0534 21.3454C15.0534 23.6794 16.9455 25.5716 19.2796 25.5716ZM32.2067 25.5716C34.5408 25.5716 36.4329 23.6794 36.4329 21.3454C36.4329 19.0113 34.5408 17.1192 32.2067 17.1192C29.8727 17.1192 27.9805 19.0113 27.9805 21.3454C27.9805 23.6794 29.8727 25.5716 32.2067 25.5716ZM36.4329 34.2721C36.4329 36.6062 34.5408 38.4983 32.2067 38.4983C29.8727 38.4983 27.9805 36.6062 27.9805 34.2721C27.9805 31.9381 29.8727 30.046 32.2067 30.046C34.5408 30.046 36.4329 31.9381 36.4329 34.2721ZM32.2067 51.426C34.5408 51.426 36.4329 49.5339 36.4329 47.1998C36.4329 44.8658 34.5408 42.9737 32.2067 42.9737C29.8727 42.9737 27.9805 44.8658 27.9805 47.1998C27.9805 49.5339 29.8727 51.426 32.2067 51.426ZM49.3601 21.3454C49.3601 23.6794 47.468 25.5716 45.1339 25.5716C42.7999 25.5716 40.9078 23.6794 40.9078 21.3454C40.9078 19.0113 42.7999 17.1192 45.1339 17.1192C47.468 17.1192 49.3601 19.0113 49.3601 21.3454Z" fill="#5186EE"/>
</svg>
