<svg width="310" height="379" viewBox="0 0 310 379" fill="none" xmlns="http://www.w3.org/2000/svg">
<g id="frame">
<path id="Vector 296" d="M192.092 343.527H192.778L192.612 344.527C192.068 346.205 191.663 349.165 192.705 352.292C193.103 353.486 193.943 354.43 194.404 354.924C194.993 355.556 195.714 356.216 196.48 356.867C198.02 358.178 200.003 359.676 202.092 361.176C206.285 364.187 211.155 367.382 214.364 369.409L214.82 369.697L215.335 369.854C219.378 371.084 226.199 372.707 233.771 373.67C241.294 374.626 249.88 374.974 257.307 373.445L257.488 373.408L257.665 373.354C259.812 372.7 263.029 371.412 265.55 369.567C266.796 368.655 268.192 367.378 269.048 365.68C270.003 363.786 270.204 361.491 269.078 359.238C268.332 357.747 267.26 356.321 266.089 355.027H276.5H276.722L276.942 355.002C281.508 354.495 292.714 352.642 299.789 349.105L300.111 348.943L300.4 348.727C302.075 347.471 304.628 344.889 305.069 341.375C305.312 339.44 304.874 337.422 303.581 335.595C302.351 333.856 300.497 332.494 298.212 331.412L297.678 331.159L297.093 331.071L287.81 329.679L263.217 316.016L262.619 311.233L263.078 310.316L263.831 308.81L263.28 307.219L258.78 294.219L258.714 294.029L258.63 293.846C256.544 289.342 253.366 282.509 250.606 276.648C249.228 273.719 247.949 271.024 246.963 268.982C246.471 267.962 246.045 267.092 245.713 266.431C245.442 265.892 245.097 265.211 244.828 264.808L244.831 264.813C244.831 264.813 244.806 264.772 244.745 264.67C244.681 264.561 244.597 264.414 244.492 264.229C244.284 263.86 244.017 263.374 243.702 262.794C243.074 261.635 242.279 260.141 241.425 258.523C239.835 255.508 238.059 252.097 236.815 249.696C235.899 245.123 234.058 237.984 231.333 230.507C228.621 223.065 224.931 215 220.221 208.797C219.521 205.919 217.887 202.231 214.939 199.124C211.524 195.523 206.422 192.806 199.434 193.027H161.209L157 174.088V155.892L160.434 137.252L160.487 136.963L160.497 136.67L161.497 108.67L161.508 108.364L161.473 108.06L160.778 102.151L175.528 93.4747L176.65 92.815L177.168 91.6218L181.548 81.5494C184.048 80.4125 187.274 78.8211 190.19 77.1196C191.946 76.0957 193.685 74.9766 195.11 73.8425C196.35 72.8552 198.026 71.3485 198.745 69.4314C199.569 67.235 200.341 64.6765 200.495 61.6017C200.649 58.515 200.172 55.1149 198.767 51.1816C197.746 48.3241 196.925 46.245 196.302 44.7901C195.991 44.0631 195.701 43.4234 195.437 42.8951C195.009 37.7433 192.685 30.7077 187.16 24.5142C181.52 18.1917 172.717 12.9376 159.692 11.2942C158.841 9.89424 157.583 8.50892 155.857 7.43917C153.151 5.76252 149.627 5.06325 145.366 5.85487C142.092 4.66373 137.468 4.07297 132.503 5.38439C126.684 6.9218 120.727 10.9848 116.045 19.0111C107.67 33.3688 102.45 39.9196 101.171 41.1986C98.3996 43.9705 94.4538 48.8947 91.2823 54.9446C88.4395 60.3674 86.0717 66.9758 85.9581 73.9217C78.1972 79.4901 64.8151 93.249 58.6593 114.41C52.6429 135.091 48.5071 159.89 46.8669 171.962C45.9027 172.439 44.9441 173.132 44.143 174.12C42.3976 176.273 42.0064 179.037 42.7923 182.005C41.9683 184.567 40.9766 188.13 40.2504 191.816C39.476 195.748 38.8894 200.355 39.4487 204.072C38.4568 210.88 37.739 221.511 38.6645 232.343C39.6078 243.381 42.315 255.38 48.885 263.536L50.5515 265.605L53.1047 264.871L96.0633 252.527H128H130.141L131.328 250.746L134.984 245.262L145.511 246.39L148.5 248.564V250.027V251.349L149.288 252.41L160.192 267.107C160.445 268.602 160.888 270.508 161.56 272.379C162.257 274.317 163.425 276.883 165.401 278.66L184.493 311.722C184.062 312.841 183.697 314.143 183.539 315.52C183.286 317.721 183.527 320.606 185.449 323.043L191.195 340.761L192.092 343.527Z" stroke="#D0DCFF" stroke-width="8"/>
<path id="Subtract" fill-rule="evenodd" clip-rule="evenodd" d="M100.363 38.3657C97.1485 42.3698 94.6567 45.2176 94.6567 45.2176C91.1757 47.6743 81.5341 51.3494 74.9075 44.3406C68.2809 37.3317 91.3994 36.423 91.3994 36.423C91.3994 36.423 72.8459 35.4767 72.181 28.9294C71.516 22.382 90.6676 30.0453 90.6676 30.0453C90.6676 30.0453 71.6069 21.0918 77.1498 12.0717C82.6927 3.05163 95.4653 21.0133 95.4653 21.0133C89.915 6.85016 90.4817 2.19612 97.2591 2.89521C104.036 3.5943 103.762 19.6198 103.762 19.6198C107.281 0.726957 114.126 7.86645 114.431 15.068C114.545 17.7593 111.812 22.6499 108.344 27.72C108.334 27.7107 108.323 27.7014 108.313 27.6921C106.095 25.7284 102.308 26.3838 99.8529 29.1559C97.3982 31.9281 97.2062 35.7673 99.4239 37.731C99.7125 37.9865 100.028 38.1978 100.363 38.3657Z" fill="#D0DCFF"/>
<path id="Vector" d="M62.9346 184.885C53.0723 190.226 71.3299 223.248 77.913 234.448C71.2468 228.033 64.9652 221.231 59.1006 214.078C57.535 203.002 49.8054 152.22 39.5239 159.002C30.6725 164.848 47.0933 195.395 55.2173 209.303C44.7757 196.039 35.1307 182.169 26.3331 167.765C26.2221 167.482 14.2271 134.867 6.55913 141.39C-1.10882 147.913 24.299 169.943 24.299 169.943V169.869C27.344 175.482 31.8683 183.642 37.6501 192.86C28.5151 182.497 11.2067 165.254 2.23204 171.506C-9.79999 179.888 30.1671 198.128 42.2237 199.9C46.859 206.891 52.0861 214.251 57.9172 221.438C47.1919 213.845 22.8443 198.054 18.2583 207.678C12.4889 219.789 36.9844 226.374 61.0731 225.266C71.2313 237.364 90.7808 256.527 95.3693 256.527C99.9578 256.527 99.3278 254.466 98.1431 250.127C96.9584 245.789 91.4984 247.001 79.9718 236.367C78.9732 226.509 73.6229 179.1 62.9346 184.885Z" fill="#D0DCFF"/>
<path id="Vector 281" d="M191 151.936L186.233 148.527L181.795 149.922L179 154.415L180.973 158.133L185.247 159.527L190.178 155.499L191 151.936Z" fill="#D0DCFF"/>
<path id="Vector 282" d="M189.014 136.021L184.431 138.527L182.903 137.744L180 132.732L180.611 127.877L186.264 125.527L189.014 126.31L191 131.792L189.014 136.021Z" fill="#D0DCFF"/>
<path id="Vector 297" d="M56.0139 66.0334L51.4306 63.5273L49.9028 64.3105L47 69.3225L47.6111 74.1779L53.2639 76.5273L56.0139 75.7442L58 70.2623L56.0139 66.0334Z" fill="#D0DCFF"/>
<path id="Vector 276" d="M259.88 294.364C259.404 296.307 258.445 300.238 258.414 300.415L259.874 301.848L261.887 301.492L263.168 294.071L266.816 296.311L270.002 294.94L271.446 292.741L268.579 291.493L263.525 292.125L264.704 287.736L269.034 287.571L271.759 285.276L271.99 282.523L268.6 282.634L265.098 285.201L266.721 277.209L271.149 276.858L273.492 273.564L273.751 271.804L270.255 271.893L267.566 274.494L268.54 270.268L271.751 266.307L271.401 263.455L270.441 262.724L266.636 265.113L266.834 269.747L265.446 273.932L264.663 271.148L262.243 268.984L261.448 269.735L262.108 272.078L265.056 275.939L262.878 283.033L262.34 279.338L259.969 276.633L257.955 278.412L257.888 280.855L262.115 286.041L260.774 291.108L258.706 286.263L255.606 285.08L254.278 287.509L255.378 291.415L259.88 294.364Z" fill="#D0DCFF"/>
</g>
</svg>
