<svg width="1180" height="352" viewBox="0 0 1180 352" fill="none" xmlns="http://www.w3.org/2000/svg" style="">
<g id="images" clip-path="url(#clip0_278_423)">
<path id="Vector 279" d="M179 349C175 343 166.4 326.2 164 307C161.6 287.8 157.667 269 156 262C152 256.333 143 244.9 139 244.5C135 244.1 94 236 74 232C72.6667 230.167 69.7 224.8 68.5 218C67.3 211.2 68 197.5 68.5 191.5L105.5 181H139L156 173C179.167 163 233.4 142.5 265 140.5C296.6 138.5 340.167 135.667 358 134.5C389.5 136 457.5 140.6 477.5 147C502.5 155 548.5 173.5 553 173.5C557.5 173.5 570.5 177.5 574.5 178C578.5 178.5 603.5 178.157 606 175.829C608.5 173.5 651.5 156 675.5 153C699.5 150 780 128 842 136C891.6 142.4 968 158 1000 165L1035.5 179.5L1079 182.5C1081.33 183.667 1086.1 186.7 1086.5 189.5C1086.9 192.3 1086.67 219.667 1086.5 233C1084 235.5 1076.8 240.7 1068 241.5C1059.2 242.3 1035.67 241.833 1025 241.5C1021.5 242.5 1013.3 247.8 1008.5 261C1003.7 274.2 997.5 315.167 995 334L979.5 349.5" stroke="#FAF7F0" stroke-width="3" stroke-dasharray="10 10" class="loUXAYVw_0"></path>
<path id="Vector 280" d="M652.5 351L637 339L619 261C617.5 250.5 609.3 230.2 588.5 233C562.5 236.5 551.5 235.5 546 256C541.6 272.4 535.167 295.5 532.5 305L517 351" stroke="#FAF7F0" stroke-width="3" stroke-dasharray="10 10" class="loUXAYVw_1"></path>
</g>
<defs>
<clipPath id="clip0_278_423">
<path width="1180" height="352" fill="white" d="M0 0 L1180 0 L1180 352 L0 352 Z" class="loUXAYVw_2"></path>
</clipPath>
</defs>
<style data-made-with="vivus-instant">.loUXAYVw_0{stroke-dasharray:1500 1502;stroke-dashoffset:1501;animation:loUXAYVw_draw 2000ms ease-in-out 0ms forwards;}.loUXAYVw_1{stroke-dasharray:299 301;stroke-dashoffset:300;animation:loUXAYVw_draw 2000ms ease-in-out 0ms forwards;}.loUXAYVw_2{stroke-dasharray:3064 3066;stroke-dashoffset:3065;animation:loUXAYVw_draw 2000ms ease-in-out 0ms forwards;}@keyframes loUXAYVw_draw{100%{stroke-dashoffset:0;}}@keyframes loUXAYVw_fade{0%{stroke-opacity:1;}93.54838709677419%{stroke-opacity:1;}100%{stroke-opacity:0;}}</style></svg>
