<?xml version="1.0" encoding="utf-8"?>
<!-- Generator: Adobe Illustrator 22.0.1, SVG Export Plug-In . SVG Version: 6.00 Build 0)  -->
<svg version="1.1" id="레이어_1" xmlns="http://www.w3.org/2000/svg" xmlns:xlink="http://www.w3.org/1999/xlink" x="0px"
	 y="0px" viewBox="0 0 1180 352" style="enable-background:new 0 0 1180 352;" xml:space="preserve">
<style type="text/css">
	.st0{display:none;}
	.st1{display:inline;}
	.st2{display:inline;clip-path:url(#SVGID_2_);}
	.st3{fill:none;stroke:#FAF7F0;stroke-width:3;stroke-dasharray:10,10;}
	.st4{fill:none;}
	.st5{display:none;opacity:0.5;}
	.st6{display:inline;fill:#19FF00;}
	.st7{fill:none;stroke:#FAF7F0;stroke-width:3;}
</style>
<rect x="-77" y="-68" class="st0" width="1313" height="544"/>
<g class="st0">
	<defs>
		<rect id="SVGID_1_" width="1180" height="352"/>
	</defs>
	<clipPath id="SVGID_2_" class="st1">
		<use xlink:href="#SVGID_1_"  style="overflow:visible;"/>
	</clipPath>
	<g id="images" class="st2">
		<path id="Vector_279" class="st3" d="M179,349c-4-6-12.6-22.8-15-42s-6.3-38-8-45c-4-5.7-13-17.1-17-17.5S94,236,74,232
			c-1.3-1.8-4.3-7.2-5.5-14s-0.5-20.5,0-26.5l37-10.5H139l17-8c23.2-10,77.4-30.5,109-32.5s75.2-4.8,93-6
			c31.5,1.5,99.5,6.1,119.5,12.5c25,8,71,26.5,75.5,26.5s17.5,4,21.5,4.5s29,0.2,31.5-2.2c2.5-2.3,45.5-19.8,69.5-22.8
			S780,128,842,136c49.6,6.4,126,22,158,29l35.5,14.5l43.5,3c2.3,1.2,7.1,4.2,7.5,7s0.2,30.2,0,43.5c-2.5,2.5-9.7,7.7-18.5,8.5
			s-32.3,0.3-43,0c-3.5,1-11.7,6.3-16.5,19.5c-4.8,13.2-11,54.2-13.5,73l-15.5,15.5"/>
		<path id="Vector_280" class="st3" d="M652.5,351L637,339l-18-78c-1.5-10.5-9.7-30.8-30.5-28c-26,3.5-37,2.5-42.5,23
			c-4.4,16.4-10.8,39.5-13.5,49L517,351"/>
	</g>
</g>
<rect class="st4" width="1180" height="352"/>
<g class="st5">
	
		<rect x="317.1" y="135.3" transform="matrix(0.9979 -6.444501e-02 6.444501e-02 0.9979 -8.149 21.0406)" class="st6" width="10" height="3"/>
	
		<rect x="277.1" y="137.9" transform="matrix(0.998 -6.347254e-02 6.347254e-02 0.998 -8.2798 18.1886)" class="st6" width="10" height="3"/>
	<polygon class="st6" points="297,137 297.2,139.9 307.2,139.3 307,136.3 	"/>
	<path class="st6" d="M358,133l-1.1,0.1l0.2,3l0.9-0.1c2.7,0.1,5.7,0.3,8.9,0.5l0.2-3C363.9,133.3,360.8,133.1,358,133L358,133z"/>
	
		<rect x="337" y="134" transform="matrix(0.9979 -6.476913e-02 6.476913e-02 0.9979 -8.0606 22.4389)" class="st6" width="10" height="3"/>
	<path class="st6" d="M217.8,148.9l0.9,2.9c3.3-1,6.5-1.9,9.6-2.7l-0.8-2.9C224.3,147,221.1,147.9,217.8,148.9z"/>
	<path class="st6" d="M198.7,155.1l1,2.8c3.2-1.1,6.4-2.1,9.5-3.1l-0.9-2.9C205.1,152.9,201.9,154,198.7,155.1z"/>
	<path class="st6" d="M264.9,139c-2.4,0.2-5.1,0.4-7.9,0.8l0.4,3c2.7-0.4,5.3-0.6,7.7-0.8l2.1-0.1l-0.2-3L264.9,139z"/>
	<path class="st6" d="M237.2,143.6l0.7,2.9c3.4-0.8,6.7-1.5,9.7-2.1l-0.6-2.9C243.9,142.1,240.6,142.8,237.2,143.6z"/>
	<path class="st6" d="M580.9,176.7c-2.9,0-5.2-0.1-6.2-0.2c-0.6-0.1-1.5-0.3-2.8-0.6l-0.7,2.9c1.4,0.3,2.4,0.5,3.1,0.6
		c1.1,0.1,3.5,0.2,6.6,0.2l0.6,0l0-3L580.9,176.7z"/>
	<path class="st6" d="M494.9,154.5c3.1,1.1,6.2,2.2,9.4,3.4l1-2.8c-3.2-1.2-6.3-2.3-9.4-3.4L494.9,154.5z"/>
	
		<rect x="517.4" y="156.7" transform="matrix(0.3473 -0.9377 0.9377 0.3473 186.9834 592.1335)" class="st6" width="3" height="10"/>
	<path class="st6" d="M179.8,161.8l1.1,2.8c3.1-1.2,6.3-2.3,9.4-3.4l-1-2.8C186.1,159.5,182.9,160.7,179.8,161.8z"/>
	<path class="st6" d="M552.3,171.9l-0.6,2.9c0.6,0.1,1.1,0.2,1.4,0.2c1.9,0,5.7,0.9,8.4,1.5l0.7-2.9c-4.6-1.1-7.4-1.6-9.1-1.6
		C553,172,552.8,172,552.3,171.9z"/>
	<path class="st6" d="M476.8,145.2l-0.8,2.9c0.4,0.1,0.7,0.2,1.1,0.3c2.5,0.8,5.3,1.7,8.4,2.8l1-2.8c-3.1-1.1-6-2-8.5-2.8
		C477.6,145.5,477.2,145.3,476.8,145.2z"/>
	<path class="st6" d="M591.4,176.4l0.1,3c4.1-0.2,7.6-0.5,10.1-0.9l-0.4-3C598.8,176,595.4,176.3,591.4,176.4z"/>
	<path class="st6" d="M416.8,140c3.3,0.3,6.7,0.6,10,0.9l0.3-3c-3.3-0.3-6.6-0.6-10-0.9L416.8,140z"/>
	<path class="st6" d="M376.9,137c3.2,0.2,6.5,0.4,10,0.6l0.2-3c-3.4-0.2-6.8-0.4-10-0.6L376.9,137z"/>
	<path class="st6" d="M436.7,141.9c3.5,0.4,6.8,0.8,9.9,1.1l0.4-3c-3.1-0.4-6.5-0.8-10-1.1L436.7,141.9z"/>
	<path class="st6" d="M456.5,144.3c3.6,0.5,6.9,1.1,9.8,1.6l0.5-3c-2.9-0.5-6.3-1.1-9.9-1.6L456.5,144.3z"/>
	<path class="st6" d="M396.9,138.4c3.3,0.2,6.6,0.5,10,0.8l0.2-3c-3.4-0.3-6.7-0.5-10-0.8L396.9,138.4z"/>
	<path class="st6" d="M74.9,230.6c-0.9-1.4-2.2-3.8-3.3-6.9l-2.8,1c1.3,3.7,3,6.7,4,8.1l0.3,0.5l1.9,0.4l0.2-1l0.4-2L74.9,230.6z"/>
	<path class="st6" d="M69.3,207.2c0-0.9,0-1.8,0-2.7l-3-0.1c0,0.9,0,1.8,0,2.7c0,2.8,0.1,5.3,0.3,7.4l3-0.2
		C69.4,212.4,69.3,210,69.3,207.2z"/>
	<polygon class="st6" points="75.4,232.3 75.2,232.8 75.1,233.7 	"/>
	<rect x="84.6" y="184" transform="matrix(0.962 -0.273 0.273 0.962 -47.2478 31.5151)" class="st6" width="10" height="3"/>
	<path class="st6" d="M171.5,168.2l-1.1-2.8c-3.2,1.3-6.3,2.5-9.3,3.8l1.1,2.8C165.2,170.7,168.3,169.5,171.5,168.2z"/>
	<path class="st6" d="M542.9,168.9c-2.5-0.9-5.6-2-9.4-3.4l-1,2.8c3.8,1.4,6.9,2.5,9.4,3.4L542.9,168.9z"/>
	<path class="st6" d="M69.9,192.7l5.7-1.6l-0.8-2.9l-7.7,2.2l-0.1,1c-0.1,0.9-0.2,1.9-0.2,3.1l3,0.2
		C69.8,193.9,69.9,193.3,69.9,192.7z"/>
	<path class="st6" d="M620.4,170.9l-1.1-2.8c-3.6,1.4-6.8,2.8-9.3,3.9l1.2,2.7C613.7,173.6,616.9,172.3,620.4,170.9z"/>
	<path class="st6" d="M84.9,235.7c3.1,0.6,6.4,1.3,9.8,1.9l0.6-2.9c-3.4-0.7-6.7-1.3-9.8-1.9L84.9,235.7z"/>
	<path class="st6" d="M104.5,239.6c3.3,0.7,6.7,1.3,9.8,1.9l0.6-2.9c-3.2-0.6-6.5-1.3-9.8-1.9L104.5,239.6z"/>
	<polygon class="st6" points="114,182.5 114,179.5 105.3,179.5 103.6,180 104.4,182.9 105.7,182.5 	"/>
	<path class="st6" d="M161.6,281.9l-3,0.5c0.6,3.3,1.2,6.6,1.7,9.8l3-0.5C162.8,288.6,162.2,285.2,161.6,281.9z"/>
	<path class="st6" d="M165.5,306.8c-0.2-1.7-0.4-3.4-0.7-5.1l-3,0.4c0.2,1.7,0.5,3.3,0.7,5c0.2,1.6,0.5,3.3,0.8,4.9l3-0.5
		C165.9,310,165.7,308.4,165.5,306.8z"/>
	<rect x="143" y="175.3" transform="matrix(0.9048 -0.4257 0.4257 0.9048 -61.1643 79.8386)" class="st6" width="10" height="3"/>
	<path class="st6" d="M157.6,262.3l-2.9,0.7c0.6,2.6,1.4,6.1,2.1,9.7l2.9-0.6C159,268.4,158.2,264.9,157.6,262.3z"/>
	<path class="st6" d="M165.6,322c0.9,3.2,2,6.4,3.2,9.6l2.8-1.1c-1.2-3.1-2.2-6.2-3.1-9.4L165.6,322z"/>
	<rect x="124" y="179.5" class="st6" width="10" height="3"/>
	<path class="st6" d="M144.5,246.1l-2,2.2c1.8,1.6,4.1,4.1,6.7,7.2l2.3-1.9C148.8,250.4,146.5,247.8,144.5,246.1z"/>
	<path class="st6" d="M124.2,243.4c3.9,0.7,7.3,1.4,9.9,1.8l0.5-3c-2.5-0.5-5.9-1.1-9.8-1.8L124.2,243.4z"/>
	<path class="st6" d="M172.8,340.9c2.3,4.7,4.1,7.6,5,8.9l2.5-1.7c-0.8-1.3-2.6-4-4.8-8.6L172.8,340.9z"/>
	<path class="st6" d="M1000.8,287.4l3,0.5c0.7-3.5,1.3-6.8,1.9-9.8l-2.9-0.6C1002.1,280.6,1001.4,283.9,1000.8,287.4z"/>
	<path class="st6" d="M944.3,155c3.3,0.7,6.6,1.3,9.8,1.9l0.6-2.9c-3.2-0.6-6.5-1.3-9.8-1.9L944.3,155z"/>
	<path class="st6" d="M983.5,163c3.5,0.7,6.8,1.4,9.8,2.1l0.6-2.9c-3-0.6-6.3-1.3-9.8-2.1L983.5,163z"/>
	<path class="st6" d="M963.9,158.9c3.4,0.7,6.7,1.4,9.8,2l0.6-2.9c-3.2-0.7-6.4-1.3-9.8-2L963.9,158.9z"/>
	<path class="st6" d="M994.4,327l3,0.4c0.4-3,0.9-6.4,1.4-9.9l-3-0.4C995.3,320.7,994.9,324,994.4,327z"/>
	<path class="st6" d="M997.4,307.2l3,0.5c0.5-3.3,1.1-6.6,1.6-9.9l-3-0.5C998.5,300.6,997.9,304,997.4,307.2z"/>
	<rect x="984.2" y="338.3" transform="matrix(0.7071 -0.7071 0.7071 0.7071 49.4533 798.9944)" class="st6" width="10" height="3"/>
	<path class="st6" d="M845.7,138c3.2,0.4,6.5,0.9,9.9,1.4l0.4-3c-3.4-0.5-6.7-1-9.9-1.4L845.7,138z"/>
	<path class="st6" d="M865.5,140.9c3.2,0.5,6.5,1,9.9,1.6l0.5-3c-3.3-0.5-6.6-1.1-9.9-1.6L865.5,140.9z"/>
	<path class="st6" d="M885.2,144.1c3.3,0.6,6.6,1.1,9.9,1.7l0.5-3c-3.3-0.6-6.6-1.2-9.9-1.7L885.2,144.1z"/>
	<path class="st6" d="M924.6,151.2c3.3,0.6,6.6,1.3,9.8,1.9l0.6-2.9c-3.2-0.6-6.5-1.3-9.8-1.9L924.6,151.2z"/>
	<path class="st6" d="M904.9,147.6c3.3,0.6,6.6,1.2,9.8,1.8l0.5-3c-3.3-0.6-6.6-1.2-9.9-1.8L904.9,147.6z"/>
	<path class="st6" d="M1007.1,260.5c-0.7,1.8-1.4,4.3-2.2,7.3l2.9,0.7c0.7-2.9,1.4-5.2,2.1-7c0.3-0.8,0.6-1.6,0.9-2.3l-2.8-1.2
		C1007.7,258.8,1007.4,259.7,1007.1,260.5z"/>
	<path class="st6" d="M1088.1,190.4c0-0.5-0.1-0.9-0.1-1.1c-0.5-3.2-4.5-6-6.9-7.4l-1.5,2.6c3.1,1.8,5.3,3.9,5.5,5.2
		c0,0.2,0,0.4,0.1,0.8L1088.1,190.4z"/>
	<path class="st6" d="M1070.9,239.5l0.6,2.9c3.3-0.7,6.6-2,9.7-3.8l-1.5-2.6C1076.9,237.7,1073.9,238.9,1070.9,239.5z"/>
	<path class="st6" d="M1088.2,200.4l-3,0l0,2.2c0,2.5,0,5.1,0,7.8l3,0c0-2.7,0-5.4,0-7.8L1088.2,200.4z"/>
	
		<rect x="1064" y="176.6" transform="matrix(6.884566e-02 -0.9976 0.9976 6.884566e-02 811.0205 1232.057)" class="st6" width="3" height="10"/>
	<path class="st6" d="M1085,230.4l3,0c0-3,0.1-6.4,0.1-10l-3,0C1085.1,224,1085.1,227.5,1085,230.4z"/>
	<path class="st6" d="M1051.8,240.4h-0.5v3h0.5c3.7,0,6.9,0,9.5-0.1l-0.1-3C1058.6,240.4,1055.4,240.4,1051.8,240.4z"/>
	
		<rect x="1006.3" y="163.2" transform="matrix(0.3781 -0.9257 0.9257 0.3781 471.0052 1037.5614)" class="st6" width="3" height="10"/>
	<path class="st6" d="M1013.2,249l2.4,1.8c2.6-3.4,5.2-5.4,6.8-6.5l-1.6-2.5C1018.9,243,1016.1,245.3,1013.2,249z"/>
	<path class="st6" d="M826,136.1c3.4,0.2,6.7,0.4,9.9,0.7l0.3-3c-3.2-0.3-6.6-0.6-10-0.7L826,136.1z"/>
	<path class="st6" d="M1031.2,243.2c3,0.1,6.5,0.1,10,0.2l0-3c-3.5,0-6.9-0.1-10-0.2L1031.2,243.2z"/>
	
		<rect x="1044.1" y="175.2" transform="matrix(6.884566e-02 -0.9976 0.9976 6.884566e-02 793.8146 1210.871)" class="st6" width="3" height="10"/>
	
		<rect x="1024.8" y="170.8" transform="matrix(0.3782 -0.9257 0.9257 0.3782 475.444 1059.3583)" class="st6" width="3" height="10"/>
	<path class="st6" d="M687,149.6l0.6,2.9c3-0.6,6.3-1.2,9.8-1.9l-0.6-2.9C693.3,148.3,690,149,687,149.6z"/>
	<path class="st6" d="M675.3,151.5c-2.4,0.3-5.1,0.8-8.1,1.4l0.6,2.9c2.9-0.6,5.5-1,7.8-1.3c0.6-0.1,1.3-0.2,2-0.3l-0.4-3
		C676.5,151.4,675.9,151.4,675.3,151.5z"/>
	<path class="st6" d="M647.8,158l0.9,2.9c3.3-1,6.6-2,9.6-2.8l-0.8-2.9C654.4,156.1,651.1,157,647.8,158z"/>
	<path class="st6" d="M806,132.8l0.1,3c3.4-0.1,6.7-0.1,9.9-0.1l0-3C812.7,132.7,809.4,132.8,806,132.8z"/>
	<path class="st6" d="M628.7,164.5l1,2.8c3.1-1.2,6.3-2.3,9.4-3.3l-1-2.8C635.1,162.2,631.9,163.3,628.7,164.5z"/>
	<path class="st6" d="M766,135.9l0.4,3c3.4-0.4,6.7-0.8,9.9-1.1l-0.3-3C772.7,135.1,769.3,135.4,766,135.9z"/>
	<path class="st6" d="M746.1,138.6l0.5,3c3.3-0.5,6.7-1,9.9-1.5l-0.4-3C752.8,137.6,749.4,138.1,746.1,138.6z"/>
	<path class="st6" d="M706.6,145.7l0.6,2.9c3.1-0.6,6.4-1.3,9.8-1.9l-0.6-2.9C713.1,144.4,709.8,145.1,706.6,145.7z"/>
	<path class="st6" d="M785.9,133.9l0.2,3c3.4-0.3,6.7-0.5,9.9-0.6l-0.2-3C792.7,133.4,789.3,133.6,785.9,133.9z"/>
	<path class="st6" d="M726.3,141.9l0.5,3c3.2-0.6,6.5-1.2,9.8-1.7l-0.5-3C732.8,140.8,729.5,141.4,726.3,141.9z"/>
	
		<rect x="625.3" y="289.8" transform="matrix(0.9745 -0.2246 0.2246 0.9745 -50.1864 148.2905)" class="st6" width="3" height="10"/>
	<path class="st6" d="M547.7,247.1l2.7,1.4c1.6-3,3.5-5.2,6-6.9l-1.7-2.5C551.8,241,549.6,243.6,547.7,247.1z"/>
	<path class="st6" d="M564.4,235l0.7,2.9c2.5-0.6,5.4-1.1,9.7-1.7l-0.4-3C570,233.9,567,234.4,564.4,235z"/>
	
		<rect x="620.8" y="270.3" transform="matrix(0.9745 -0.2246 0.2246 0.9745 -45.9249 146.7827)" class="st6" width="3" height="10"/>
	<path class="st6" d="M617.6,250.5l-2.8,1.1c1.2,3,2.2,6.3,2.6,9.3l3-0.5C619.9,257.2,618.9,253.7,617.6,250.5z"/>
	<path class="st6" d="M541.6,266.4l2.9,0.8c0.9-3.3,1.8-6.6,2.6-9.7l-2.9-0.8C543.4,259.8,542.5,263,541.6,266.4z"/>
	<path class="st6" d="M588.3,231.5c-1.4,0.2-2.7,0.4-4,0.5l0.4,3c1.3-0.2,2.7-0.3,4-0.5c1.9-0.3,3.8-0.3,5.6-0.2l0.2-3
		C592.5,231.2,590.4,231.2,588.3,231.5z"/>
	<rect x="522.6" y="318.1" transform="matrix(0.3191 -0.9477 0.9477 0.3191 56.3866 717.6254)" class="st6" width="10" height="3"/>
	
		<rect x="634.3" y="328.7" transform="matrix(0.9744 -0.2248 0.2248 0.9744 -58.7523 151.4686)" class="st6" width="3" height="10"/>
	
		<rect x="629.8" y="309.3" transform="matrix(0.9745 -0.2246 0.2246 0.9745 -54.4481 149.7982)" class="st6" width="3" height="10"/>
	<path class="st6" d="M536.3,285.7l2.9,0.8c0.9-3.1,1.8-6.4,2.7-9.6L539,276C538.1,279.3,537.2,282.6,536.3,285.7z"/>
	<rect x="647" y="342.9" transform="matrix(0.6122 -0.7907 0.7907 0.6122 -23.6081 647.7426)" class="st6" width="3" height="10"/>
	<path class="st6" d="M604.6,234.5l-1.5,2.6c2.6,1.5,4.9,3.6,7,6.2l2.4-1.8C610.2,238.5,607.5,236.2,604.6,234.5z"/>
	<path class="st6" d="M531.1,304.5l-0.1,0.4l2.8,1l0.1-0.4c0.7-2.4,1.6-5.6,2.6-9.3l-2.9-0.8C532.6,299,531.7,302.2,531.1,304.5z"/>
	<rect x="516.2" y="337" transform="matrix(0.3191 -0.9477 0.9477 0.3191 34.0754 724.4789)" class="st6" width="10" height="3"/>
</g>
<g>
	<path class="st7" d="M170.2,331.1c-1.1-2.9-2.2-6.1-3.1-9.5"/>
	<path class="st7" d="M161.8,292.1c-0.6-3.4-1.1-6.8-1.7-9.9"/>
	<path class="st7" d="M150.3,254.5c-2.2-2.7-4.7-5.4-6.8-7.3"/>
	<path class="st7" d="M114.7,240c-3.2-0.6-6.5-1.3-9.8-1.9"/>
	<path class="st7" d="M70.2,224.3c1.3,3.7,2.9,6.5,3.8,7.7c0.4,0.1,0.9,0.2,1.3,0.3"/>
	<path class="st7" d="M68.3,194.6c0.1-1.2,0.2-2.2,0.2-3.1l6.7-1.9"/>
	<polyline class="st7" points="104,181.4 105.5,181 114,181 	"/>
	<line class="st7" x1="152.6" y1="174.6" x2="143.5" y2="178.9"/>
	<path class="st7" d="M189.7,159.8c-3.2,1.2-6.4,2.3-9.4,3.5"/>
	<path class="st7" d="M227.9,147.6c-3.2,0.9-6.4,1.8-9.6,2.8"/>
	<path class="st7" d="M257.2,141.3c2.7-0.4,5.3-0.6,7.8-0.8c0.7,0,1.4-0.1,2.1-0.1"/>
	<path class="st7" d="M307.1,137.8c-3.3,0.2-6.6,0.4-10,0.6"/>
	<path class="st7" d="M347,135.2c-3.1,0.2-6.4,0.4-10,0.6"/>
	<path class="st7" d="M387,136.2c-3.4-0.2-6.8-0.4-10-0.6"/>
	<path class="st7" d="M426.9,139.4c-3.3-0.3-6.6-0.6-10-0.9"/>
	<path class="st7" d="M466.6,144.4c-3-0.6-6.3-1.1-9.9-1.6"/>
	<path class="st7" d="M504.8,156.5c-3.2-1.2-6.3-2.3-9.4-3.4"/>
	<path class="st7" d="M542.4,170.3c-2.8-1-6-2.1-9.4-3.4"/>
	<path class="st7" d="M571.5,177.4c1.2,0.3,2.2,0.5,3,0.6c1.1,0.1,3.7,0.2,7,0.2"/>
	<path class="st7" d="M619.9,169.5c-3.7,1.5-6.8,2.8-9.2,3.9"/>
	<path class="st7" d="M657.8,156.7c-3.2,0.8-6.4,1.8-9.6,2.8"/>
	<path class="st7" d="M697.1,149.1c-3.5,0.7-6.8,1.4-9.8,1.9"/>
	<path class="st7" d="M736.5,141.7c-3.4,0.6-6.7,1.1-9.9,1.7"/>
	<path class="st7" d="M776.1,136.2c-3.3,0.3-6.7,0.7-10,1.1"/>
	<path class="st7" d="M806,134.3c3.4-0.1,6.7-0.1,10-0.1"/>
	<path class="st7" d="M855.8,137.9c-3.4-0.5-6.7-1-9.9-1.4"/>
	<path class="st7" d="M895.4,144.4c-3.3-0.6-6.6-1.1-9.9-1.7"/>
	<path class="st7" d="M934.7,151.6c-3.3-0.6-6.5-1.3-9.8-1.9"/>
	<path class="st7" d="M974,159.5c-3.1-0.7-6.4-1.3-9.8-2"/>
	<line class="st7" x1="1012.4" y1="170.1" x2="1003.2" y2="166.3"/>
	<line class="st7" x1="1050.6" y1="180.5" x2="1040.6" y2="179.9"/>
	<path class="st7" d="M1080.3,183.2c2.5,1.4,5.9,3.9,6.2,6.3c0,0.2,0.1,0.5,0.1,0.9v0"/>
	<path class="st7" d="M1086.6,220.5c0,3.6-0.1,7-0.1,10"/>
	<path class="st7" d="M1061.3,241.8c-3,0.1-6.4,0.1-10,0.1"/>
	<path class="st7" d="M1014.4,250c2.5-3.3,5.1-5.5,7.2-6.8"/>
	<path class="st7" d="M1004.2,277.9c-0.6,3.1-1.3,6.4-1.9,9.8"/>
	<path class="st7" d="M997.4,317.4c-0.5,3.5-1,6.9-1.4,9.9"/>
	<line class="st7" x1="992.7" y1="336.3" x2="985.7" y2="343.3"/>
	<path class="st7" d="M1000.5,297.6c-0.6,3.3-1.1,6.6-1.6,9.9"/>
	<path class="st7" d="M1006.4,268.1c0.7-2.8,1.4-5.3,2.1-7.1c0.3-0.8,0.6-1.6,1-2.4"/>
	<path class="st7" d="M1041.3,241.9c-3.5-0.1-7-0.1-10-0.2"/>
	<path class="st7" d="M1080.5,237.4c-2.6,1.5-5.8,2.9-9.3,3.6"/>
	<path class="st7" d="M1086.7,200.4c0,3,0,6.5,0,10"/>
	<line class="st7" x1="1070.5" y1="181.9" x2="1060.5" y2="181.2"/>
	<line class="st7" x1="1030.9" y1="177.6" x2="1021.7" y2="173.9"/>
	<path class="st7" d="M993.6,163.6c-3-0.6-6.3-1.4-9.8-2.1"/>
	<path class="st7" d="M954.4,155.5c-3.2-0.6-6.5-1.3-9.8-1.9"/>
	<path class="st7" d="M915,147.9c-3.3-0.6-6.6-1.2-9.8-1.8"/>
	<path class="st7" d="M875.6,141c-3.3-0.6-6.7-1.1-9.9-1.6"/>
	<path class="st7" d="M836,135.3c-3.3-0.3-6.6-0.6-10-0.7"/>
	<path class="st7" d="M796,134.7c-3.3,0.2-6.7,0.4-10,0.7"/>
	<path class="st7" d="M756.2,138.6c-3.3,0.5-6.6,1-9.9,1.5"/>
	<path class="st7" d="M716.8,145.3c-3.4,0.6-6.7,1.3-9.8,1.9"/>
	<path class="st7" d="M667.6,154.4c2.8-0.6,5.5-1.1,7.9-1.4c0.6-0.1,1.3-0.2,1.9-0.3"/>
	<path class="st7" d="M638.7,162.6c-3.3,1.1-6.4,2.2-9.5,3.4"/>
	<path class="st7" d="M591.5,177.9c3.7-0.2,7.3-0.4,10-0.8"/>
	<path class="st7" d="M551.9,173.4c0.5,0.1,0.8,0.1,1.1,0.1c1.9,0,5.2,0.7,8.8,1.6"/>
	<path class="st7" d="M523.6,163.5c-3-1.1-6.2-2.3-9.4-3.5"/>
	<path class="st7" d="M476.4,146.7c0.4,0.1,0.7,0.2,1.1,0.3c2.6,0.8,5.4,1.8,8.4,2.8"/>
	<path class="st7" d="M446.8,141.5c-3.2-0.4-6.5-0.8-9.9-1.2"/>
	<path class="st7" d="M407,137.6c-3.3-0.3-6.7-0.5-10-0.8"/>
	<path class="st7" d="M357,134.6c0.3,0,0.6-0.1,1-0.1c2.8,0.1,5.8,0.3,9,0.5"/>
	<path class="st7" d="M327.1,136.5c-3.2,0.2-6.6,0.4-10,0.7"/>
	<path class="st7" d="M287.1,139.1c-3.4,0.2-6.7,0.4-10,0.6"/>
	<path class="st7" d="M247.3,142.9c-3.2,0.6-6.5,1.4-9.8,2.2"/>
	<path class="st7" d="M208.7,153.3c-3.2,1-6.4,2.1-9.5,3.2"/>
	<path class="st7" d="M171,166.8c-3.3,1.3-6.5,2.6-9.3,3.8"/>
	<line class="st7" x1="134" y1="181" x2="124" y2="181"/>
	<line class="st7" x1="94.4" y1="184.1" x2="84.8" y2="186.9"/>
	<path class="st7" d="M68.1,214.6c-0.2-3-0.3-6.5-0.2-10"/>
	<path class="st7" d="M95,236.2c-3.4-0.7-6.7-1.3-9.8-1.9"/>
	<path class="st7" d="M134.3,243.7c-2.5-0.5-5.9-1.1-9.8-1.8"/>
	<path class="st7" d="M156.1,262.6c0.5,2.3,1.3,5.7,2.1,9.8"/>
	<path class="st7" d="M163.3,302c0.2,1.7,0.5,3.4,0.7,5c0.2,1.6,0.5,3.3,0.7,4.9"/>
	<path id="Vector_279_2_" class="st7" d="M179,349c-1.3-1.9-3-4.9-4.9-8.8"/>
	<line class="st7" x1="636.9" y1="338.6" x2="634.7" y2="328.9"/>
	<line class="st7" x1="627.9" y1="299.6" x2="625.7" y2="289.9"/>
	<path class="st7" d="M619,260.7c-0.4-2.8-1.3-6.2-2.7-9.6"/>
	<path class="st7" d="M584.5,233.5c1.3-0.2,2.6-0.3,4-0.5c2.1-0.3,4.1-0.3,5.9-0.2"/>
	<path class="st7" d="M549.1,247.8c1.7-3.3,3.8-5.7,6.5-7.5"/>
	<path class="st7" d="M540.4,276.4c-0.9,3.3-1.8,6.5-2.7,9.6"/>
	<line class="st7" x1="529.2" y1="314.8" x2="526" y2="324.3"/>
	<line class="st7" x1="522.8" y1="333.8" x2="519.6" y2="343.3"/>
	<path class="st7" d="M532.4,305.4l0.1-0.4c0.7-2.4,1.6-5.5,2.6-9.3"/>
	<path class="st7" d="M545.7,257.1c-0.8,3.1-1.7,6.3-2.6,9.7"/>
	<path class="st7" d="M574.5,234.8c-3.7,0.5-7,1-9.8,1.7"/>
	<path class="st7" d="M611.3,242.4c-2-2.6-4.5-4.9-7.4-6.6"/>
	<line class="st7" x1="623.4" y1="280.1" x2="621.2" y2="270.4"/>
	<line class="st7" x1="632.4" y1="319.1" x2="630.2" y2="309.4"/>
	<line class="st7" x1="652.5" y1="351" x2="644.6" y2="344.9"/>
</g>
</svg>
