<svg width="1023" height="220" viewBox="0 0 1023 220" fill="none" xmlns="http://www.w3.org/2000/svg">
<path d="M113 217C109 211 100.4 194.2 98 175C95.6 155.8 91.6667 137 90 130C86 124.333 77 112.9 73 112.5C69 112.1 28 104 7.99998 100C6.66665 98.1667 3.69998 92.8 2.49998 86C1.29998 79.2 1.99998 65.5 2.49998 59.5L39.5 49H73L90 41C113.167 31 167.4 10.5 199 8.5C230.6 6.5 274.167 3.66667 292 2.5C323.5 4 391.5 8.6 411.5 15C436.5 23 482.5 41.5 487 41.5C491.5 41.5 504.5 45.5 508.5 46C512.5 46.5 537.5 46.1571 540 43.8285C542.5 41.5 585.5 24 609.5 21C633.5 18 714 -4 776 4C825.6 10.4 902 26 934 33L969.5 47.5L1013 50.5C1015.33 51.6667 1020.1 54.7 1020.5 57.5C1020.9 60.3 1020.67 87.6667 1020.5 101C1018 103.5 1010.8 108.7 1002 109.5C993.2 110.3 969.667 109.833 959 109.5C955.5 110.5 947.3 115.8 942.5 129C937.7 142.2 931.5 183.167 929 202L913.5 217.5" stroke="#FAF7F0" stroke-width="3" stroke-dasharray="10 10"/>
<path d="M586.5 219L571 207L553 129C551.5 118.5 543.3 98.2002 522.5 101C496.5 104.5 485.5 103.5 480 124C475.6 140.4 469.167 163.5 466.5 173L451 219" stroke="#FAF7F0" stroke-width="3" stroke-dasharray="10 10"/>
</svg>
