<svg width="1180" height="352" viewBox="0 0 1180 352" fill="none" xmlns="http://www.w3.org/2000/svg">
<g id="images" clip-path="url(#clip0_278_423)">
<g id="Group 13">
<path id="Vector 276" d="M272.787 341.933C277.582 349.944 287.265 366.153 287.642 366.9L282.691 375.067L272.787 376L256.989 344.733L242.842 359.2L226.101 357.1L216.434 349.167L228.223 340.067L252.745 336.567L241.427 318.6L220.914 323.267L205.116 316.5L200.4 304.6L216.434 300.867L236.24 307.867L218.084 274.5L196.863 278.467L181.537 266.8L178 259.333L194.505 255.367L210.539 263.533L200.4 246.033L180.122 232.5L178 219.433L181.537 215L202.522 220.833L207.709 241.6L219.735 258.4V245.1L228.223 232.5L232.939 234.833V246.033L224.215 266.8L243.785 295.5L241.427 278.467L248.973 263.533L260.762 268.9L264.299 279.633L251.331 307.867L264.299 328.633L267.6 304.6L280.568 295.5L290 304.6V323.267L272.787 341.933Z" fill="#FAF7F0"/>
<path id="Vector 290" d="M140.677 316.409C129.723 310.336 112.995 311.808 106 313.303L126.725 328.309C130.132 329.989 137.482 333.576 139.626 334.485C141.77 335.393 152.581 334.062 157.718 333.283C156.432 331.359 153.167 326.8 150.393 323.955C147.619 321.11 142.76 317.739 140.677 316.409Z" fill="#FAF7F0"/>
<path id="Vector 293" d="M1084.29 148.53L1078.04 152L1075.96 150.916L1072 143.976L1072.83 137.253L1080.54 134L1084.29 135.084L1087 142.675L1084.29 148.53Z" fill="#FAF7F0"/>
</g>
</g>
<defs>
<clipPath id="clip0_278_423">
<rect width="1180" height="352" fill="white"/>
</clipPath>
</defs>
</svg>
