<svg width="950" height="762" viewBox="0 0 950 762" fill="none" xmlns="http://www.w3.org/2000/svg">
<path fill-rule="evenodd" clip-rule="evenodd" d="M415.363 220.507C412.149 224.511 409.657 227.359 409.657 227.359C406.176 229.816 396.534 233.491 389.908 226.482C383.281 219.473 406.4 218.565 406.4 218.565C406.4 218.565 387.846 217.618 387.181 211.071C386.516 204.524 405.668 212.187 405.668 212.187C405.668 212.187 386.607 203.233 392.15 194.213C397.693 185.193 410.465 203.155 410.465 203.155C404.915 188.992 405.482 184.338 412.259 185.037C419.037 185.736 418.762 201.761 418.762 201.761C422.282 182.869 429.126 190.008 429.431 197.21C429.545 199.901 426.812 204.791 423.344 209.862C423.334 209.852 423.323 209.843 423.313 209.834C421.095 207.87 417.308 208.525 414.853 211.298C412.398 214.07 412.206 217.909 414.424 219.873C414.713 220.128 415.028 220.339 415.363 220.507Z" fill="#D0DCFF"/>
<path d="M374.935 380.357C365.072 385.699 383.33 418.72 389.913 429.92C383.247 423.505 376.965 416.704 371.101 409.551C369.535 398.474 361.805 347.693 351.524 354.475C342.673 360.321 359.093 390.868 367.217 404.776C356.776 391.512 347.131 377.641 338.333 363.238C338.222 362.954 326.227 330.339 318.559 336.862C310.891 343.385 336.299 365.416 336.299 365.416V365.342C339.344 370.954 343.868 379.114 349.65 388.333C340.515 377.97 323.207 360.727 314.232 366.979C302.2 375.361 342.167 393.6 354.224 395.373C358.859 402.363 364.086 409.723 369.917 416.911C359.192 409.317 334.844 393.527 330.258 403.151C324.489 415.262 348.984 421.846 373.073 420.739C383.231 432.837 402.781 452 407.369 452C411.958 452 411.328 449.939 410.143 445.6C408.958 441.261 403.498 442.474 391.972 431.84C390.973 421.982 385.623 374.573 374.935 380.357Z" fill="#D0DCFF"/>
<path d="M506 334.077L501.233 330.669L496.795 332.063L494 336.556L495.973 340.275L500.247 341.669L505.178 337.641L506 334.077Z" fill="#D0DCFF"/>
<path d="M504.014 318.163L499.431 320.669L497.903 319.886L495 314.874L495.611 310.018L501.264 307.669L504.014 308.452L506 313.934L504.014 318.163Z" fill="#D0DCFF"/>
<path d="M371.014 248.175L366.431 245.669L364.903 246.452L362 251.464L362.611 256.32L368.264 258.669L371.014 257.886L373 252.404L371.014 248.175Z" fill="#D0DCFF"/>
<path d="M583.88 521.836C583.404 523.78 582.445 527.71 582.414 527.887L583.874 529.321L585.886 528.965L587.167 521.543L590.816 523.783L594.002 522.412L595.445 520.214L592.579 518.966L587.525 519.598L588.704 515.209L593.034 515.044L595.758 512.749L595.99 509.996L592.6 510.107L589.097 512.674L590.721 504.681L595.149 504.331L597.492 501.036L597.751 499.277L594.255 499.366L591.566 501.967L592.54 497.74L595.751 493.78L595.401 490.928L594.44 490.197L590.636 492.585L590.834 497.219L589.446 501.404L588.663 498.621L586.243 496.457L585.448 497.207L586.108 499.551L589.055 503.411L586.877 510.506L586.34 506.81L583.969 504.105L581.955 505.884L581.888 508.327L586.114 513.514L584.774 518.581L582.706 513.735L579.606 512.553L578.278 514.982L579.378 518.888L583.88 521.836Z" fill="#D0DCFF"/>
<path d="M504.851 551.331L505.722 551.593C505.107 553.671 504.639 556.064 504.541 558.567C504.359 563.172 505.428 568.585 509.672 572.828L509.881 573.038L510.119 573.214C514.943 576.787 523.548 581.775 534.046 585.473C544.544 589.171 557.205 591.675 570.029 589.965C576.281 589.131 580.95 587.631 584.066 585.327C587.459 582.818 588.901 579.406 588.473 575.77C588.192 573.389 587.143 571.179 585.858 569.27C591.068 569.478 596.789 569.458 602.154 568.998C606.901 568.591 611.581 567.823 615.438 566.456C619.137 565.145 622.987 562.961 624.668 559.095C625.976 556.087 626.247 553.09 625.165 550.352C624.115 547.694 622.047 545.938 620.005 544.804C616.451 542.828 611.932 542.142 608.606 542.021L581.218 526.238L579.477 521.763L579.985 521.473L582.639 519.956L581.872 516.996L578.372 503.496L578.281 503.147L578.13 502.819L556.305 455.697C554.924 449.726 552.43 440.409 549.284 431.228C546.299 422.517 542.572 413.451 538.439 407.605C538.129 403.956 536.587 399.309 532.907 395.415C528.644 390.905 521.895 387.806 512.033 387.998L475.515 386.629L472.5 364.232V348.414L476.915 327.319L476.955 327.129L476.976 326.936C477.652 320.772 478.415 311.332 478.5 303.029C478.542 298.894 478.419 294.905 477.997 291.699C477.824 290.384 477.589 289.1 477.255 287.943L492.612 278.397L493.816 277.648L494.28 276.308L498.062 265.381C502.703 264.081 508.386 261.311 512.5 256.463C517.47 250.607 519.714 242.22 516.001 231.324C515.942 224.941 513.921 215.771 508.061 207.616C502.286 199.579 492.92 192.73 478.618 190.446C478.157 188.596 477.225 186.637 475.509 185.071C472.558 182.376 468.382 181.776 463.406 183.171C459.816 181.442 454.717 180.316 449.23 181.651C442.623 183.257 436.189 188.243 431.391 198.274C427.047 207.357 421.526 214.594 416.028 221.801C414.841 223.357 413.655 224.911 412.482 226.482C406.321 234.737 400.601 243.386 398.388 254.481C389.814 259.816 374.463 273.819 368.154 295.901C362.037 317.309 356.062 345.761 353.464 359.198C352.204 359.93 350.921 361.022 350.039 362.588C348.587 365.167 348.701 368.117 350.173 371.039C347.629 379.981 344.923 393.938 344.415 409.04C343.875 425.08 345.796 442.887 353.465 457.372L354.938 460.155L357.989 459.376L404.419 447.521L439.331 448.996L441.542 449.09L442.796 447.266L446.835 441.391L456.647 443.143L474.04 468.526L494.183 509.305L502.08 548.294L502.555 550.643L504.851 551.331Z" stroke="#D0DCFF" stroke-width="8"/>
</svg>
