<svg width="950" height="762" viewBox="0 0 950 762" fill="none" xmlns="http://www.w3.org/2000/svg">
<g id="img">
<g id="Group 27">
<path id="Subtract" fill-rule="evenodd" clip-rule="evenodd" d="M415.363 220.507C412.149 224.511 409.657 227.359 409.657 227.359C406.176 229.816 396.534 233.491 389.908 226.482C383.281 219.473 406.4 218.565 406.4 218.565C406.4 218.565 387.846 217.618 387.181 211.071C386.516 204.524 405.668 212.187 405.668 212.187C405.668 212.187 386.607 203.233 392.15 194.213C397.693 185.193 410.465 203.155 410.465 203.155C404.915 188.992 405.482 184.338 412.259 185.037C419.037 185.736 418.762 201.761 418.762 201.761C422.282 182.869 429.126 190.008 429.431 197.21C429.545 199.901 426.812 204.791 423.344 209.862C423.334 209.852 423.323 209.843 423.313 209.834C421.095 207.87 417.308 208.525 414.853 211.298C412.398 214.07 412.206 217.909 414.424 219.873C414.713 220.128 415.028 220.339 415.363 220.507Z" fill="#D0DCFF"/>
<path id="Vector" d="M374.935 380.357C365.072 385.699 383.33 418.72 389.913 429.92C383.247 423.505 376.965 416.704 371.101 409.551C369.535 398.474 361.805 347.693 351.524 354.475C342.673 360.321 359.093 390.868 367.217 404.776C356.776 391.512 347.131 377.641 338.333 363.238C338.222 362.954 326.227 330.339 318.559 336.862C310.891 343.385 336.299 365.416 336.299 365.416V365.342C339.344 370.954 343.868 379.114 349.65 388.333C340.515 377.97 323.207 360.727 314.232 366.979C302.2 375.361 342.167 393.6 354.224 395.373C358.859 402.363 364.086 409.723 369.917 416.911C359.192 409.317 334.844 393.527 330.258 403.151C324.489 415.262 348.984 421.846 373.073 420.739C383.231 432.837 402.781 452 407.369 452C411.958 452 411.328 449.939 410.143 445.6C408.958 441.261 403.498 442.474 391.972 431.84C390.973 421.982 385.623 374.573 374.935 380.357Z" fill="#D0DCFF"/>
<path id="Vector 281" d="M506 334.077L501.233 330.669L496.795 332.063L494 336.556L495.973 340.275L500.247 341.669L505.178 337.641L506 334.077Z" fill="#D0DCFF"/>
<path id="Vector 282" d="M504.014 318.163L499.431 320.669L497.903 319.886L495 314.874L495.611 310.018L501.264 307.669L504.014 308.452L506 313.934L504.014 318.163Z" fill="#D0DCFF"/>
<path id="Vector 297" d="M371.014 248.175L366.431 245.669L364.903 246.452L362 251.464L362.611 256.32L368.264 258.669L371.014 257.886L373 252.404L371.014 248.175Z" fill="#D0DCFF"/>
<path id="Vector 276" d="M583.88 521.836C583.404 523.78 582.445 527.71 582.414 527.887L583.874 529.321L585.886 528.965L587.167 521.543L590.816 523.783L594.002 522.412L595.445 520.214L592.579 518.966L587.525 519.598L588.704 515.209L593.034 515.044L595.758 512.749L595.99 509.996L592.6 510.107L589.097 512.674L590.721 504.681L595.149 504.331L597.492 501.036L597.751 499.277L594.255 499.366L591.566 501.967L592.54 497.74L595.751 493.78L595.401 490.928L594.44 490.197L590.636 492.585L590.834 497.219L589.446 501.404L588.663 498.621L586.243 496.457L585.448 497.207L586.108 499.551L589.055 503.411L586.877 510.506L586.34 506.81L583.969 504.105L581.955 505.884L581.888 508.327L586.114 513.514L584.774 518.581L582.706 513.735L579.606 512.553L578.278 514.982L579.378 518.888L583.88 521.836Z" fill="#D0DCFF"/>
<path id="Vector 298 (Stroke)" fill-rule="evenodd" clip-rule="evenodd" d="M498 508L477.5 466.5L459 439.5L445 437L439.5 445L404 443.5L357 455.5C342.6 428.3 349.333 387.5 354.5 370.5C350.9 365.3 354.667 362.667 357 362C359.333 349.667 365.6 319.4 372 297C378.4 274.6 394.667 261 402 257C404.056 244.077 411.288 234.604 419.135 224.326C424.646 217.106 430.462 209.489 435 200C443.8 181.6 457.333 184 463 187.5C473 183.9 475.167 190.333 475 194C505 197.2 512.167 220.667 512 232C519.2 252 503.667 260.333 495 262L490.5 275L472 286.5C472.493 286.845 472.899 287.527 473.231 288.481C475.595 295.271 474.169 315.832 473 326.5L468.5 348V364.5L472 390.5L512 392C530 391.6 534.5 403.167 534.5 409C542.5 419.4 549.833 445.333 552.5 457L574.5 504.5L578 518L574.5 520L578 529L607.5 546C613.667 546 625 548.3 621 557.5C618.014 564.368 601.654 565.719 587.935 565.338C583.276 565.209 578.922 564.88 575.5 564.5C578.545 566.72 581.879 569.901 583.519 573.166C586.187 578.48 584.366 584.018 569.5 586C545.5 589.2 521.5 576.667 512.5 570C508.704 566.204 508.121 561.047 508.727 556.576C509.143 553.508 510.119 550.763 511 549L506 547.5L498 508ZM500.978 554.346L499.111 553.785L490.366 510.609L470.579 470.553L454.295 446.786L448.671 445.782L443.585 453.18L404.839 451.543L352.877 464.809L349.93 459.243C341.793 443.873 339.867 425.26 340.417 408.906C340.911 394.214 343.433 380.58 345.94 371.334C344.617 367.873 344.588 364.118 346.553 360.626C347.459 359.017 348.629 357.773 349.851 356.821C352.605 342.767 358.382 315.544 364.308 294.802C370.6 272.778 385.401 258.368 394.828 252.024C397.445 240.811 403.342 232.04 409.276 224.09C410.498 222.453 411.716 220.855 412.923 219.273C418.403 212.086 423.633 205.226 427.783 196.548C432.978 185.686 440.264 179.714 448.285 177.764C454.144 176.339 459.609 177.26 463.775 178.961C469.095 177.8 474.25 178.505 478.206 182.117C479.803 183.575 480.898 185.245 481.633 186.925C495.668 189.733 505.241 196.837 511.309 205.282C517.52 213.925 519.797 223.59 519.989 230.64C523.832 242.478 521.408 252.148 515.549 259.052C511.403 263.938 505.969 266.937 501.184 268.593L497.132 280.297L481.766 289.849C481.841 290.296 481.906 290.741 481.963 291.177C482.421 294.659 482.543 298.865 482.5 303.07C482.413 311.548 481.637 321.127 480.952 327.372L480.91 327.758L476.5 348.828V363.964L479.03 382.758L512.072 383.997C522.801 383.813 530.668 387.222 535.814 392.667C539.833 396.919 541.728 401.929 542.303 406.165C546.556 412.525 550.218 421.615 553.068 429.932C556.194 439.055 558.683 448.296 560.108 454.39L582.063 501.793L587.279 521.912L584.489 523.506L609.77 538.075C613.347 538.305 618.022 539.125 621.948 541.307C624.48 542.714 627.382 545.076 628.886 548.882C630.453 552.848 629.953 556.973 628.337 560.69C625.975 566.121 620.775 568.808 616.775 570.226C612.458 571.756 607.397 572.563 602.496 572.983C599.089 573.275 595.556 573.396 592.098 573.397C592.25 574.015 592.368 574.65 592.445 575.302C593.051 580.451 590.918 585.235 586.444 588.543C582.524 591.442 577.061 593.063 570.557 593.93C556.909 595.75 543.587 593.075 532.717 589.246C521.846 585.416 512.886 580.241 507.738 576.428L507.262 576.076L506.843 575.657C501.557 570.371 500.335 563.71 500.544 558.41C500.599 557.013 500.753 555.65 500.978 554.346Z" fill="#D0DCFF"/>
</g>
</g>
</svg>
