<svg width="1180" height="352" viewBox="0 0 1180 352" fill="none" xmlns="http://www.w3.org/2000/svg">
<g id="images">
<g id="Group 13">
<g id="Group 20">
<path id="Vector 281" d="M976 295.648L969.644 291L963.726 292.901L960 299.028L962.63 304.099L968.329 306L974.904 300.507L976 295.648Z" fill="#FAF7F0"/>
<path id="Vector 282" d="M973.292 273.53L967.042 277L964.958 275.916L961 268.976L961.833 262.253L969.542 259L973.292 260.084L976 267.675L973.292 273.53Z" fill="#FAF7F0"/>
<path id="Vector 283" d="M937.925 278L946.284 278.736L949 283.396V289.774C949 290.264 943.149 291 942.94 291H938.343L935 287.075V279.962L937.925 278Z" fill="#FAF7F0"/>
</g>
<path id="Vector 292" d="M42.9254 149L51.2836 149.736L54 154.396V160.774C54 161.264 48.1493 162 47.9403 162H43.3433L40 158.075V150.962L42.9254 149Z" fill="#FAF7F0"/>
<path id="Vector 291" d="M112.925 259L121.284 259.736L124 264.396V270.774C124 271.264 118.149 272 117.94 272H113.343L110 268.075V260.962L112.925 259Z" fill="#FAF7F0"/>
<path id="Vector 289" d="M971.853 324.576C965.312 325.602 953.039 331.463 947.721 334.265C953.806 336.021 969.549 338.69 983.844 335.321C998.138 331.952 1009.76 318.86 1013.78 312.735L989.795 318.304C986.54 319.967 978.394 323.549 971.853 324.576Z" fill="#FAF7F0"/>
</g>
</g>
</svg>
