<svg width="318" height="418" viewBox="0 0 318 418" fill="none" xmlns="http://www.w3.org/2000/svg" style="">
<g id="Group 27">
<path id="Subtract" fill-rule="evenodd" clip-rule="evenodd" d="M103.363 43.5073C100.149 47.5114 97.6568 50.3592 97.6568 50.3592C94.1758 52.8159 84.5342 56.4911 77.9076 49.4822C71.281 42.4733 94.3996 41.5646 94.3996 41.5646C94.3996 41.5646 75.846 40.6183 75.1811 34.071C74.5161 27.5236 93.6677 35.1869 93.6677 35.1869C93.6677 35.1869 74.6071 26.2334 80.1499 17.2133C85.6928 8.19323 98.4655 26.1549 98.4655 26.1549C92.9151 11.9918 93.4818 7.33772 100.259 8.03681C107.037 8.7359 106.762 24.7614 106.762 24.7614C110.282 5.86856 117.126 13.008 117.431 20.2096C117.545 22.9009 114.812 27.7915 111.344 32.8616C111.334 32.8523 111.323 32.843 111.313 32.8337C109.095 30.87 105.308 31.5254 102.853 34.2975C100.398 37.0697 100.206 40.9089 102.424 42.8726C102.713 43.1282 103.028 43.3394 103.363 43.5073Z" fill="#D0DCFF" class="ZbdhVJjF_0"></path>
<path id="Vector" d="M62.9346 203.357C53.0723 208.699 71.3299 241.72 77.913 252.92C71.2468 246.505 64.9652 239.704 59.1006 232.551C57.535 221.474 49.8054 170.693 39.5239 177.475C30.6725 183.321 47.0933 213.868 55.2173 227.776C44.7757 214.512 35.1307 200.641 26.3331 186.238C26.2221 185.954 14.2271 153.339 6.55913 159.862C-1.10882 166.385 24.299 188.416 24.299 188.416V188.342C27.344 193.954 31.8683 202.114 37.6501 211.333C28.5151 200.97 11.2067 183.727 2.23204 189.979C-9.79999 198.361 30.1671 216.6 42.2237 218.373C46.859 225.363 52.0861 232.723 57.9172 239.911C47.1919 232.317 22.8443 216.527 18.2583 226.151C12.4889 238.262 36.9844 244.846 61.0731 243.739C71.2313 255.837 90.7808 275 95.3693 275C99.9578 275 99.3278 272.939 98.1431 268.6C96.9584 264.261 91.4984 265.474 79.9718 254.84C78.9732 244.982 73.6229 197.573 62.9346 203.357Z" fill="#D0DCFF" class="ZbdhVJjF_1"></path>
<path id="Vector 281" d="M194 157.077L189.233 153.669L184.795 155.063L182 159.556L183.973 163.275L188.247 164.669L193.178 160.641L194 157.077Z" fill="#D0DCFF" class="ZbdhVJjF_2"></path>
<path id="Vector 282" d="M192.014 141.163L187.431 143.669L185.903 142.886L183 137.874L183.611 133.018L189.264 130.669L192.014 131.452L194 136.934L192.014 141.163Z" fill="#D0DCFF" class="ZbdhVJjF_3"></path>
<path id="Vector 297" d="M59.0139 71.175L54.4306 68.6689L52.9028 69.4521L50 74.4641L50.6111 79.3195L56.2639 81.6689L59.0139 80.8858L61 75.4039L59.0139 71.175Z" fill="#D0DCFF" class="ZbdhVJjF_4"></path>
<path id="Vector 276" d="M271.88 344.836C271.404 346.78 270.445 350.71 270.414 350.887L271.874 352.321L273.886 351.965L275.167 344.543L278.816 346.783L282.002 345.412L283.445 343.214L280.579 341.966L275.525 342.598L276.704 338.209L281.034 338.044L283.758 335.749L283.99 332.996L280.6 333.107L277.097 335.674L278.721 327.681L283.149 327.331L285.492 324.036L285.751 322.277L282.255 322.366L279.566 324.967L280.54 320.74L283.751 316.78L283.401 313.928L282.44 313.197L278.636 315.585L278.834 320.219L277.446 324.404L276.663 321.621L274.243 319.457L273.448 320.207L274.108 322.551L277.055 326.411L274.877 333.506L274.34 329.81L271.969 327.105L269.955 328.884L269.888 331.327L274.114 336.514L272.774 341.581L270.706 336.735L267.606 335.553L266.278 337.982L267.378 341.888L271.88 344.836Z" fill="#D0DCFF" class="ZbdhVJjF_5"></path>
<path id="Vector 298" d="M192.851 374.331L193.722 374.593C193.107 376.671 192.639 379.064 192.541 381.567C192.359 386.172 193.428 391.585 197.672 395.828L197.881 396.038L198.119 396.214C202.943 399.787 211.548 404.775 222.046 408.473C232.544 412.171 245.205 414.675 258.029 412.965C264.281 412.131 268.95 410.631 272.066 408.327C275.459 405.818 276.901 402.406 276.473 398.77C276.192 396.389 275.143 394.179 273.858 392.27C279.068 392.478 284.789 392.458 290.154 391.998C294.901 391.591 299.581 390.823 303.438 389.456C307.137 388.145 310.987 385.961 312.668 382.095C313.976 379.087 314.247 376.09 313.165 373.352C312.115 370.694 310.047 368.938 308.005 367.804C304.451 365.828 299.932 365.142 296.606 365.021L269.218 349.238L267.477 344.763L267.985 344.473L270.639 342.956L269.872 339.996L266.372 326.496L266.281 326.147L266.13 325.819L244.305 278.697C242.924 272.726 240.43 263.409 237.284 254.228C234.299 245.517 230.572 236.451 226.439 230.605C226.129 226.956 224.587 222.309 220.907 218.415C216.644 213.905 209.895 210.806 200.033 210.998L163.515 209.629L160.5 187.232V171.414L164.915 150.319L164.955 150.129L164.976 149.936C165.652 143.772 166.415 134.332 166.5 126.029C166.542 121.894 166.419 117.905 165.997 114.699C165.824 113.384 165.589 112.1 165.255 110.943L180.612 101.397L181.816 100.648L182.28 99.3084L186.062 88.3812C190.703 87.0814 196.386 84.3106 200.5 79.4633C205.47 73.6065 207.714 65.2198 204.001 54.3241C203.942 47.9406 201.921 38.7712 196.061 30.6156C190.286 22.5785 180.92 15.7297 166.618 13.4462C166.157 11.5958 165.225 9.63725 163.509 8.07065C160.558 5.37602 156.382 4.77627 151.406 6.17106C147.816 4.44188 142.717 3.31616 137.23 4.65064C130.623 6.25719 124.189 11.2432 119.391 21.2741C115.047 30.3568 109.526 37.5943 104.028 44.8007C102.841 46.3566 101.655 47.9111 100.482 49.4824C94.3212 57.7365 88.6012 66.3861 86.3883 77.4813C77.8135 82.8156 62.4629 96.8193 56.1538 118.901C50.0372 140.309 44.0615 168.761 41.4636 182.198C40.2042 182.93 38.9208 184.022 38.0392 185.588C36.5873 188.167 36.701 191.117 38.1726 194.039C35.629 202.981 32.9229 216.938 32.4147 232.04C31.8749 248.08 33.7963 265.887 41.4648 280.372L42.9382 283.155L45.9895 282.376L92.4192 270.521L127.331 271.996L129.542 272.09L130.796 270.266L134.835 264.391L144.647 266.143L162.04 291.526L182.183 332.305L190.08 371.294L190.555 373.643L192.851 374.331Z" stroke="#D0DCFF" stroke-width="8" class="ZbdhVJjF_6"></path>
</g>
<style data-made-with="vivus-instant">.ZbdhVJjF_0{stroke-dasharray:244 246;stroke-dashoffset:245;animation:ZbdhVJjF_draw 2000ms ease-in-out 0ms forwards;}.ZbdhVJjF_1{stroke-dasharray:709 711;stroke-dashoffset:710;animation:ZbdhVJjF_draw 2000ms ease-in-out 0ms forwards;}.ZbdhVJjF_2{stroke-dasharray:35 37;stroke-dashoffset:36;animation:ZbdhVJjF_draw 2000ms ease-in-out 0ms forwards;}.ZbdhVJjF_3{stroke-dasharray:38 40;stroke-dashoffset:39;animation:ZbdhVJjF_draw 2000ms ease-in-out 0ms forwards;}.ZbdhVJjF_4{stroke-dasharray:38 40;stroke-dashoffset:39;animation:ZbdhVJjF_draw 2000ms ease-in-out 0ms forwards;}.ZbdhVJjF_5{stroke-dasharray:180 182;stroke-dashoffset:181;animation:ZbdhVJjF_draw 2000ms ease-in-out 0ms forwards;}.ZbdhVJjF_6{stroke-dasharray:1238 1240;stroke-dashoffset:1239;animation:ZbdhVJjF_draw 2000ms ease-in-out 0ms forwards;}@keyframes ZbdhVJjF_draw{100%{stroke-dashoffset:0;}}@keyframes ZbdhVJjF_fade{0%{stroke-opacity:1;}93.54838709677419%{stroke-opacity:1;}100%{stroke-opacity:0;}}</style></svg>
