<svg width="112" height="137" viewBox="0 0 112 137" fill="none" xmlns="http://www.w3.org/2000/svg">
<path d="M94.7874 126.933C99.5818 134.944 109.265 151.153 109.642 151.9L104.691 160.067L94.7874 161L78.9895 129.733L64.8421 144.2L48.1011 142.1L38.4337 134.167L50.2232 125.067L74.7453 121.567L63.4274 103.6L42.9137 108.267L27.1158 101.5L22.4 89.6L38.4337 85.8667L58.24 92.8667L40.0842 59.5L18.8632 63.4667L3.53684 51.8L0 44.3333L16.5053 40.3667L32.5389 48.5333L22.4 31.0333L2.12211 17.5L0 4.43333L3.53684 0L24.5221 5.83333L29.7095 26.6L41.7347 43.4V30.1L50.2232 17.5L54.9389 19.8333V31.0333L46.2147 51.8L65.7853 80.5L63.4274 63.4667L70.9726 48.5333L82.7621 53.9L86.299 64.6333L73.3305 92.8667L86.299 113.633L89.6 89.6L102.568 80.5L112 89.6V108.267L94.7874 126.933Z" fill="#FAF7F0"/>
</svg>
