<svg xmlns="http://www.w3.org/2000/svg" viewBox="0 0 130.33 41.19"><title>자산 1</title><g id="레이어_2" data-name="레이어 2"><g id="레이어_1-2" data-name="레이어 1"><path d="M11.62,6.82H8.17A.15.15,0,0,0,8,6.93a.15.15,0,0,0,.08.17c.93.49,1,1,1,2.07V31c0,.45,0,.9,0,1.33,0,3.77,0,7-2.22,7.89S2,39.74.23,38.62a.16.16,0,0,0-.15,0,.16.16,0,0,0-.08.14v1.82a.16.16,0,0,0,.12.15,16.82,16.82,0,0,0,3.82.47,9.46,9.46,0,0,0,3.18-.48A7.44,7.44,0,0,0,8.54,40,6.68,6.68,0,0,0,11,37.08a11.58,11.58,0,0,0,.73-4.48V7A.14.14,0,0,0,11.62,6.82Z"/><path d="M10.28,0A1.76,1.76,0,0,0,8.54,1.73a1.74,1.74,0,1,0,3.47,0A1.75,1.75,0,0,0,10.28,0Z"/><path d="M37.64,6.38a22.45,22.45,0,0,0-4.12.35l-.27,0a.15.15,0,0,0-.13.15V8.55a.16.16,0,0,0,.08.13.14.14,0,0,0,.15,0l.35-.22A7.55,7.55,0,0,1,37.64,7a5.37,5.37,0,0,1,5,2.8c1.43,2.76.09,5.69-2.4,10.61l-1.66,3.21L37,26.74,32.14,16c1.18-2.86,1.29-4.76.4-6.55a4.86,4.86,0,0,0-4.6-2.62h-3.5a.15.15,0,0,0-.15.12.16.16,0,0,0,.1.17,3.82,3.82,0,0,1,1.83,2l4.15,9.2c-.15.3-.31.62-.48.94l-.59,1.16c-.89,1.78-2.7,5.29-3.22,6.3L18.1,9A1.71,1.71,0,0,1,18,7.46a.71.71,0,0,1,.38-.34A.15.15,0,0,0,18.54,7a.15.15,0,0,0-.15-.15H13.54a.16.16,0,0,0-.15.12.16.16,0,0,0,.1.17,3.85,3.85,0,0,1,1.84,2l9.45,21a.17.17,0,0,0,.14.09h0a.13.13,0,0,0,.13-.08c0-.06,2.81-5.43,4.85-9.46l.82-1.55,5,11a.14.14,0,0,0,.13.09.2.2,0,0,0,.14-.08c0-.06,2.9-5.57,4.9-9.46h0c2.51-4.93,3.92-8.14,2.35-11.18A6.23,6.23,0,0,0,37.64,6.38Zm-5.87,8.79-3.5-7.76a4,4,0,0,1,3.67,2.36C32.71,11.27,32.66,12.85,31.77,15.17Z"/><path d="M71,6.38a22.16,22.16,0,0,0-4.07.35l-.28,0a.14.14,0,0,0-.12.15V8.55a.13.13,0,0,0,.08.13.14.14,0,0,0,.15,0L67,8.54A7.76,7.76,0,0,1,71,7a5.42,5.42,0,0,1,5,2.8c1.41,2.83,0,5.88-2.45,10.62L72.3,23l-2.11,4.13L62,9a1.64,1.64,0,0,1-.11-1.53.7.7,0,0,1,.41-.37A.15.15,0,0,0,62.46,7a.15.15,0,0,0-.15-.15h-4.9a.14.14,0,0,0-.14.12.14.14,0,0,0,.09.17,3.85,3.85,0,0,1,1.84,2l9.42,20.91c-.09.18-.34.69-.54,1A44.26,44.26,0,0,1,65,36.35c-2.18,2.72-4.58,3.07-8.85,1.3a.14.14,0,0,0-.14,0,.14.14,0,0,0-.07.13v1.68a.14.14,0,0,0,.12.14,16.82,16.82,0,0,0,3.17.35,7.24,7.24,0,0,0,6.39-3.43,34.48,34.48,0,0,0,3-5.11c2.31-4.34,4.08-7.76,5.57-10.75,2.46-4.73,4-8.07,2.4-11.18A6.3,6.3,0,0,0,71,6.38Z"/><path d="M91,6.38A12.27,12.27,0,0,0,78.62,18.54a12.35,12.35,0,0,0,24.69,0A12.27,12.27,0,0,0,91,6.38Zm9.26,10.31h0a13,13,0,0,1-1.53,9.59,8.26,8.26,0,0,1-5.46,3.58C87.16,31.05,82.83,26,81.7,20.33a12.94,12.94,0,0,1,1.55-9.55,8.3,8.3,0,0,1,5.49-3.62A9.41,9.41,0,0,1,90.55,7a8.15,8.15,0,0,1,4.64,1.44A12.94,12.94,0,0,1,100.23,16.69Z"/><path d="M118,6.38a12.26,12.26,0,0,0-12.34,12.16,12.34,12.34,0,0,0,24.68,0A12.26,12.26,0,0,0,118,6.38Zm9.26,10.31h0a13,13,0,0,1-1.52,9.59,8.28,8.28,0,0,1-5.46,3.58c-6.09,1.19-10.42-3.89-11.54-9.53a12.94,12.94,0,0,1,1.54-9.55,8.26,8.26,0,0,1,5.49-3.62A9.49,9.49,0,0,1,117.57,7a8.2,8.2,0,0,1,4.65,1.44A13,13,0,0,1,127.25,16.69Z"/></g></g></svg>