<svg xmlns="http://www.w3.org/2000/svg" viewBox="0 0 64 64"><title>자산 2</title><g id="레이어_2" data-name="레이어 2"><g id="레이어_1-2" data-name="레이어 1"><path d="M36.82,1.06l-.36,1h-.07C36,.71,35.29.17,34.54.11a1.38,1.38,0,0,0-1.62,1C32.59,3,36.71,2.67,36.53,5A2.11,2.11,0,0,1,34,6.78a3.92,3.92,0,0,1-2.5-1.13l.37-1.06H32a3,3,0,0,0,2.46,2,1.51,1.51,0,0,0,1.65-1c.4-2-3.73-1.67-3.55-4C32.58.8,33.27-.11,34.8,0A3.8,3.8,0,0,1,36.82,1.06Z"/><path d="M43.58,7.13A3.22,3.22,0,0,1,40,8a3.5,3.5,0,0,1-2.27-4.33,3.57,3.57,0,0,1,4.47-2.13A4,4,0,0,1,44.3,3.07L43.7,4l-.07,0a3,3,0,0,0-2.41-2.53c-1.66-.17-2.81,1.47-2.85,3.23A3.07,3.07,0,0,0,41.05,8a2.81,2.81,0,0,0,2.48-.91Z"/><path d="M47.59,11.76l0,.06-1.25-.77,0-.06c.34-.08.35-.48.38-1.23l.06-2a3.47,3.47,0,0,1-.37-.21L45.67,7,44.38,9.12c-.17.28-.19.44-.11.59l0,0-1-.61,0-.06c.17,0,.3-.08.47-.37l2.84-4.59c.18-.29.19-.44.11-.58l0-.07,1.57,1c1.26.78,2.1,2,1.45,3A1.82,1.82,0,0,1,47.46,8L47.4,9.72A5.58,5.58,0,0,0,47.59,11.76Zm1.52-4.7c.39-.63.69-1.59-.85-2.54l-.75-.47L45.71,7l.75.47C48,8.38,48.72,7.68,49.11,7.06Z"/><path d="M54.75,14.19a3.45,3.45,0,1,1,0-4.85A3.46,3.46,0,0,1,54.75,14.19ZM54.66,13c.82-1.55.69-3.4-.78-4.18S50.8,8.94,50,10.49s-.69,3.4.78,4.18S53.83,14.54,54.66,13Z"/><path d="M55.65,19.85l-1.09.43-2.1-3.37,0,0c.16.08.31.06.6-.11l4.57-2.86c.29-.18.37-.31.36-.48l.07,0,.62,1-.06,0c-.15-.08-.3-.06-.59.12L53,17.7l.46.73a2.84,2.84,0,0,0,2.16,1.35Z"/><path d="M57.41,24.17l-1.14.24-1.48-3.69.06,0c.14.11.29.12.6,0l5-2c.32-.12.42-.24.44-.41l.07,0,.44,1.1-.07,0c-.13-.1-.28-.12-.6,0L55.21,21.6l.33.8a2.84,2.84,0,0,0,1.89,1.71Z"/><path d="M61.12,30.73l-.45.05-.45-4,.45-.05Z"/><path d="M59.53,40.68c-1.85-.37-3-2.22-2.53-4.39L57.46,34h.06c.06.16.19.25.52.32l5.29,1c.33.07.48,0,.59-.1l.08,0-.46,2.34A3.53,3.53,0,0,1,59.53,40.68Zm.15-.74a3,3,0,0,0,3.78-2.38l.28-1.39-6.4-1.26-.27,1.39A3.06,3.06,0,0,0,59.68,39.94Z"/><path d="M56.11,48a3.45,3.45,0,1,1,4.6-1.56A3.45,3.45,0,0,1,56.11,48Zm1.11-.46c1.73.29,3.44-.43,3.72-2.07s-1.1-2.88-2.83-3.17-3.45.42-3.73,2.06S55.48,47.22,57.22,47.52Z"/><path d="M50.93,55.85,49,52.08l-.81-.35.52-.54,4.76,2.05.27.1-2-4L50.89,49l.52-.53,4.76,2a6.08,6.08,0,0,0,1.95.52l.06.05-1,1,0-.06c0-.35-.3-.53-1-.82l-4.31-1.85,1.86,3.67.18.34a5,5,0,0,0,1.58.36l.06.06-1,1-.05-.05c0-.35-.3-.53-1-.82l-4.31-1.85L51,55.8c.41.82.72,1.16,1.31,1.16l.06.06-.8.81,0-.06A4.14,4.14,0,0,0,50.93,55.85Z"/><path d="M44.49,61.67l0-.07a1.31,1.31,0,0,0,0-1.22l-2.61-4.86.13-.07,6.73,3-2.2-4.11a1.33,1.33,0,0,0-1.05-.66l0,0L46.58,53l0,.06a1.3,1.3,0,0,0,0,1.23l2.24,4.18.91.4-.85.45L42.5,56.54l2,3.81a1.31,1.31,0,0,0,1,.65l0,.07Z"/><path d="M35.43,61l-.08-.45,3.95-.75.08.45Z"/><path d="M26.58,62.9l.38-1H27c.42,1.32,1.07,1.87,1.81,1.94a1.38,1.38,0,0,0,1.64-1c.36-1.88-3.76-1.63-3.54-4a2.11,2.11,0,0,1,2.54-1.7A3.91,3.91,0,0,1,32,58.41l-.39,1.05H31.5a3,3,0,0,0-2.43-2.07,1.51,1.51,0,0,0-1.66,1c-.43,2,3.7,1.74,3.48,4.11A1.88,1.88,0,0,1,28.59,64,3.8,3.8,0,0,1,26.58,62.9Z"/><path d="M19.9,56.7a3.22,3.22,0,0,1,3.58-.81,3.49,3.49,0,0,1,2.19,4.37,3.56,3.56,0,0,1-4.51,2,4,4,0,0,1-2.06-1.56l.63-.93.06,0a3.05,3.05,0,0,0,2.36,2.57c1.66.2,2.85-1.42,2.91-3.18a3.06,3.06,0,0,0-2.61-3.33,2.79,2.79,0,0,0-2.5.86Z"/><path d="M16,52l0-.06,1.24.8,0,0c-.34.08-.36.47-.4,1.23l-.11,2c.13.07.26.13.38.21l.74.48,1.32-2.06c.18-.28.2-.44.13-.58l0-.06,1,.63,0,.06c-.17,0-.3.08-.48.36l-2.92,4.54c-.19.29-.2.44-.13.59l0,.06-1.55-1c-1.25-.8-2.07-2-1.39-3A1.8,1.8,0,0,1,16,55.78l.09-1.73A5.68,5.68,0,0,0,16,52Zm-1.6,4.68c-.4.62-.72,1.58.8,2.56l.74.48,1.86-2.9L17,56.35C15.52,55.37,14.77,56.06,14.38,56.68Z"/><path d="M8.87,49.45A3.46,3.46,0,1,1,8.8,54.3,3.45,3.45,0,0,1,8.87,49.45Zm.07,1.2c-.85,1.53-.75,3.38.7,4.19s3.09-.07,3.94-1.6.75-3.39-.7-4.2S9.8,49.11,8.94,50.65Z"/><path d="M8.07,43.77l1.1-.41,2,3.4-.06,0c-.15-.09-.31-.07-.59.1L5.93,49.67c-.3.18-.38.3-.37.48l-.07,0-.61-1,.07,0c.15.08.3.07.59-.1L10.65,46l-.44-.75a2.83,2.83,0,0,0-2.14-1.38Z"/><path d="M6.39,39.41l1.15-.21L9,42.91l-.07,0c-.13-.11-.29-.12-.6,0l-5,1.92c-.32.12-.42.23-.45.4l-.07,0-.42-1.1.07,0c.13.1.28.12.6,0L8.54,42l-.31-.81a2.86,2.86,0,0,0-1.86-1.73Z"/><path d="M2.8,32.77l.45,0,.38,4-.46.05Z"/><path d="M4.56,22.88c1.84.4,2.92,2.27,2.45,4.43l-.5,2.33H6.45c0-.16-.18-.26-.51-.33L.67,28.17c-.33-.07-.48,0-.6.09l-.07,0,.5-2.32A3.52,3.52,0,0,1,4.56,22.88Zm-.16.74A3.06,3.06,0,0,0,.57,25.93L.28,27.32l6.37,1.37L7,27.3A3.06,3.06,0,0,0,4.4,23.62Z"/><path d="M8.12,15.64A3.45,3.45,0,1,1,3.5,17.11,3.44,3.44,0,0,1,8.12,15.64ZM7,16.08c-1.72-.32-3.44.37-3.75,2S4.29,21,6,21.3s3.45-.36,3.76-2S8.73,16.41,7,16.08Z"/><path d="M13.44,7.86l1.85,3.81.81.36-.54.53-4.72-2.14-.26-.1,2,4,.8.37-.53.52L8.1,13.12a5.86,5.86,0,0,0-1.94-.54l0-.06,1-1,.06.06c0,.35.28.53,1,.84l4.28,1.93-1.8-3.71c-.06-.11-.12-.23-.17-.34A5.13,5.13,0,0,0,8.9,9.88l-.05-.06,1-1,0,0c0,.35.29.53,1,.84l4.28,1.93-1.8-3.71c-.4-.82-.7-1.17-1.29-1.19l-.06,0,.81-.79.06,0A4.08,4.08,0,0,0,13.44,7.86Z"/><path d="M20,2.15l0,.07A1.31,1.31,0,0,0,20,3.44l2.53,4.91-.13.07L15.68,5.34l2.13,4.13a1.31,1.31,0,0,0,1,.68l0,.06-1.15.59,0-.06a1.32,1.32,0,0,0,.05-1.24L15.58,5.29l-.9-.41.86-.44,6.33,2.88-2-3.84a1.29,1.29,0,0,0-1-.67l0-.07Z"/><path d="M29,3l.08.45-4,.68-.08-.45Z"/></g></g></svg>