<svg width="113" height="91" viewBox="0 0 113 91" fill="none" xmlns="http://www.w3.org/2000/svg">
<path d="M85.62 38.0004C88.88 40.6404 91.62 42.3204 93.62 44.6204C95.2 46.4404 95.91 49.0104 97.01 51.2504C94.6 52.0304 92.01 53.8104 89.82 53.3804C85.01 52.3804 80.41 50.3804 75.76 48.7304C74.3232 48.1104 72.9211 47.4127 71.56 46.6404C79.64 62.2304 77.42 76.5404 69.95 90.4604L67.68 90.2304C67.8592 88.7688 68.1944 87.3306 68.68 85.9404C73.35 75.7504 75.3 65.2704 71.32 54.4804C69.85 50.4804 67.32 46.9604 64.94 42.6804C61.54 45.8504 59.09 48.8804 55.94 50.8604C51.08 53.9404 46 57.2804 40.61 58.7004C33.01 60.7004 29.14 55.3704 32.2 48.0804C33.53 44.8904 35.45 41.9404 37.51 38.0804C32.93 38.2904 28.74 38.7604 24.57 38.6104C18.2697 38.5513 11.9811 38.0534 5.75 37.1204C3.48 36.7204 0 33.8604 0 32.1404C0 29.8104 2.4 26.1404 4.55 25.4004C11.9 23.0204 19.6 21.6904 27.42 19.9404C26.67 18.9404 25.42 17.3204 24.31 15.6004C22.19 12.2004 20.95 8.60042 23.31 4.82042C25.67 1.04042 29.72 0.230417 33.48 1.54042C41.78 4.42042 49.88 7.85042 58.01 11.1704C60.18 12.1801 62.2962 13.3016 64.35 14.5304C65.3703 11.6945 66.5386 8.91402 67.85 6.20042C71.42 -0.369583 76.19 -0.799582 80.45 5.40042C83.05 9.19042 84.83 13.5804 86.6 17.8604C87.6 20.2104 88.8 20.9704 91.31 21.2004C96.7635 21.6169 102.172 22.49 107.48 23.8104C109.48 24.3304 112.12 27.0804 112.08 28.7504C112.08 30.8304 109.88 34.0504 107.96 34.6604C102.65 36.3604 96.96 37.0204 91.46 37.9604C89.5167 38.1102 87.5652 38.1236 85.62 38.0004ZM73.06 30.5904C67.43 26.8404 54.22 26.8904 49.29 30.5904C57.32 33.1704 64.83 32.9404 73.06 30.5904Z" fill="#5186EE"/>
</svg>
