<svg width="810" height="1280" viewBox="0 0 810 1280" fill="none" xmlns="http://www.w3.org/2000/svg">
<path opacity="0.5" d="M426.449 1162.93L462.947 1280H547.468L539.784 1137.99L587.808 994.052L718.432 788.706L816.4 775.272L899 690.831L864.423 617.904L747.246 646.691L718.432 734.971L539.784 932.64L566.677 788.706L699.222 581.441L729.957 404.882L816.4 349.228L854.818 297.412V209.132L831.767 168.831L747.246 209.132L689.617 259.029L718.432 349.228L655.041 516.191L495.603 759.919L476.393 880.824L447.579 892.338L462.947 552.654L547.468 404.882L587.808 270.544L689.617 195.699L729.957 95.9044L718.432 22.9779L666.566 -25L539.784 44.0882L512.891 111.257L539.784 226.404L436.053 479.728L326.56 297.412L361.137 209.132L326.56 143.882L297.746 111.257L218.987 126.61L197.857 195.699L218.987 270.544L268.932 297.412L341.927 414.478L395.714 533.463V892.338L286.22 708.103L169.043 577.603V485.485L103.731 395.287L34.5769 376.096L0 433.669V533.463L19.2094 577.603L119.098 627.5L268.932 829.007L426.449 1162.93Z" fill="#FAF7F0"/>
</svg>
